<?xml version="1.0" encoding="UTF-8"?>
<svg id="Layer_1" data-name="Layer 1" xmlns="http://www.w3.org/2000/svg" xmlns:xlink="http://www.w3.org/1999/xlink" viewBox="0 0 800 400">
  <defs>
    <style>
      .cls-1 {
        fill: url(#linear-gradient-2);
      }

      .cls-2 {
        fill: #fff;
      }

      .cls-3 {
        fill: url(#linear-gradient-6);
      }

      .cls-4 {
        fill: url(#linear-gradient-5);
      }

      .cls-5 {
        fill: url(#linear-gradient-7);
      }

      .cls-6 {
        fill: url(#linear-gradient-3);
      }

      .cls-7 {
        fill: url(#linear-gradient);
      }

      .cls-8 {
        fill: url(#linear-gradient-4);
      }

      .cls-9 {
        fill: url(#linear-gradient-8);
      }
    </style>
    <linearGradient id="linear-gradient" x1="359.77" y1="82.05" x2="357.63" y2="206.11" gradientUnits="userSpaceOnUse">
      <stop offset="0" stop-color="#b6f04a"/>
      <stop offset="1" stop-color="#2ccc5b"/>
    </linearGradient>
    <linearGradient id="linear-gradient-2" x1="437.43" y1="83.39" x2="435.29" y2="207.45" xlink:href="#linear-gradient"/>
    <linearGradient id="linear-gradient-3" x1="505.33" y1="84.56" x2="503.19" y2="208.62" xlink:href="#linear-gradient"/>
    <linearGradient id="linear-gradient-4" x1="570.76" y1="85.69" x2="568.62" y2="209.75" xlink:href="#linear-gradient"/>
    <linearGradient id="linear-gradient-5" x1="641.85" y1="86.92" x2="639.71" y2="210.97" xlink:href="#linear-gradient"/>
    <linearGradient id="linear-gradient-6" x1="188.87" y1="227.16" x2="140.81" y2="259.19" xlink:href="#linear-gradient"/>
    <linearGradient id="linear-gradient-7" x1="252.55" y1="210.71" x2="304.37" y2="236.21" xlink:href="#linear-gradient"/>
    <linearGradient id="linear-gradient-8" x1="208.78" y1="162.62" x2="205.69" y2="104.95" xlink:href="#linear-gradient"/>
  </defs>
  <path class="cls-7" d="M366.3,128.17c-7.85,0-13.52,2.18-17.01,6.53-3.49,4.36-5.24,10.31-5.24,17.87,0,3.67,.43,7,1.3,9.99,.86,2.99,2.16,5.56,3.89,7.72,1.73,2.16,3.89,3.83,6.48,5.02,2.59,1.19,5.62,1.78,9.07,1.78,1.87,0,3.47-.04,4.81-.11,1.33-.07,2.5-.21,3.51-.43v-26.03h16.85v37.04c-2.02,.79-5.26,1.64-9.72,2.54-4.46,.9-9.97,1.35-16.52,1.35-5.62,0-10.71-.86-15.28-2.59-4.57-1.73-8.48-4.25-11.72-7.56-3.24-3.31-5.74-7.38-7.51-12.2-1.77-4.82-2.65-10.33-2.65-16.52s.97-11.81,2.92-16.63c1.94-4.82,4.61-8.91,7.99-12.26,3.38-3.35,7.36-5.89,11.93-7.61,4.57-1.73,9.45-2.59,14.63-2.59,3.53,0,6.71,.23,9.56,.7,2.84,.47,5.29,1.01,7.34,1.62,2.05,.61,3.74,1.24,5.08,1.89,1.33,.65,2.28,1.15,2.86,1.51l-4.86,13.5c-2.3-1.22-4.95-2.29-7.94-3.19-2.99-.9-6.25-1.35-9.77-1.35Z"/>
  <path class="cls-1" d="M427.53,114.34c11.23,0,19.83,2,25.81,5.99,5.98,4,8.96,10.21,8.96,18.63,0,5.26-1.21,9.52-3.62,12.8-2.41,3.28-5.89,5.85-10.42,7.72,1.51,1.87,3.09,4.01,4.75,6.43,1.65,2.41,3.29,4.93,4.91,7.56,1.62,2.63,3.19,5.37,4.7,8.21,1.51,2.84,2.92,5.63,4.21,8.37h-18.83c-1.37-2.45-2.77-4.93-4.17-7.45-1.41-2.52-2.85-4.97-4.34-7.34-1.48-2.38-2.95-4.62-4.39-6.75-1.45-2.12-2.89-4.05-4.34-5.78h-8.32v27.32h-16.85V116.29c3.67-.72,7.47-1.22,11.39-1.51,3.92-.29,7.43-.43,10.53-.43Zm.97,14.36c-1.22,0-2.32,.04-3.29,.11s-1.89,.14-2.75,.21v20.3h4.75c6.33,0,10.87-.79,13.61-2.38,2.74-1.58,4.1-4.28,4.1-8.1s-1.39-6.28-4.16-7.83c-2.77-1.55-6.86-2.32-12.26-2.32Z"/>
  <path class="cls-6" d="M477.64,190.05V115.21h50.54v14.15h-33.7v14.69h29.91v13.82h-29.91v18.04h36.18v14.15h-53.03Z"/>
  <path class="cls-8" d="M543.09,190.05V115.21h50.54v14.15h-33.7v14.69h29.91v13.82h-29.91v18.04h36.18v14.15h-53.03Z"/>
  <path class="cls-4" d="M658.75,190.05c-4.82-8.57-10.04-17.03-15.66-25.38-5.62-8.35-11.59-16.24-17.93-23.65v49.03h-16.63V115.21h13.72c2.38,2.38,5,5.29,7.88,8.75,2.88,3.46,5.81,7.15,8.8,11.07,2.99,3.92,5.96,7.99,8.91,12.2,2.95,4.21,5.72,8.26,8.32,12.15v-44.17h16.74v74.84h-14.15Z"/>
  <path class="cls-2" d="M364.96,283.91c-12.17,0-21.44-3.38-27.81-10.15-6.37-6.77-9.56-16.38-9.56-28.84,0-6.19,.97-11.72,2.92-16.58,1.94-4.86,4.61-8.96,7.99-12.31,3.38-3.35,7.42-5.89,12.1-7.61,4.68-1.73,9.76-2.59,15.23-2.59,3.17,0,6.05,.23,8.64,.7,2.59,.47,4.86,1.01,6.8,1.62,1.94,.61,3.56,1.24,4.86,1.89,1.3,.65,2.23,1.15,2.81,1.51l-4.86,13.61c-2.3-1.22-4.99-2.27-8.05-3.13-3.06-.86-6.53-1.3-10.42-1.3-2.59,0-5.13,.43-7.61,1.3-2.48,.86-4.68,2.25-6.59,4.16-1.91,1.91-3.44,4.37-4.59,7.4-1.15,3.02-1.73,6.7-1.73,11.02,0,3.46,.38,6.68,1.13,9.67,.76,2.99,1.98,5.56,3.67,7.72,1.69,2.16,3.9,3.87,6.64,5.13,2.74,1.26,6.05,1.89,9.93,1.89,2.45,0,4.64-.14,6.59-.43,1.94-.29,3.67-.63,5.18-1.03,1.51-.4,2.84-.85,4-1.35,1.15-.5,2.2-.97,3.13-1.4l4.64,13.5c-2.38,1.44-5.72,2.74-10.04,3.89-4.32,1.15-9.32,1.73-15.01,1.73Z"/>
  <path class="cls-2" d="M430.81,238.26c3.03-5.1,5.91-10.2,8.65-15.29,2.74-5.1,5.26-10.23,7.57-15.4h18.58c-4.1,8.06-8.35,15.88-12.74,23.44-4.39,7.56-9.04,15.16-13.93,22.79v28.62h-16.85v-28.4c-4.9-7.63-9.56-15.26-13.99-22.9-4.43-7.63-8.69-15.48-12.8-23.54h19.55c2.3,5.17,4.78,10.31,7.44,15.4,2.66,5.1,5.5,10.2,8.52,15.29Z"/>
  <path class="cls-2" d="M504.05,283.91c-12.17,0-21.44-3.38-27.81-10.15-6.37-6.77-9.56-16.38-9.56-28.84,0-6.19,.97-11.72,2.92-16.58,1.94-4.86,4.61-8.96,7.99-12.31,3.38-3.35,7.42-5.89,12.1-7.61,4.68-1.73,9.76-2.59,15.23-2.59,3.17,0,6.05,.23,8.64,.7,2.59,.47,4.86,1.01,6.8,1.62,1.94,.61,3.56,1.24,4.86,1.89,1.3,.65,2.23,1.15,2.81,1.51l-4.86,13.61c-2.3-1.22-4.99-2.27-8.05-3.13-3.06-.86-6.53-1.3-10.42-1.3-2.59,0-5.13,.43-7.61,1.3-2.48,.86-4.68,2.25-6.59,4.16-1.91,1.91-3.44,4.37-4.59,7.4-1.15,3.02-1.73,6.7-1.73,11.02,0,3.46,.38,6.68,1.13,9.67,.76,2.99,1.98,5.56,3.67,7.72,1.69,2.16,3.9,3.87,6.64,5.13,2.74,1.26,6.05,1.89,9.93,1.89,2.45,0,4.64-.14,6.59-.43,1.94-.29,3.67-.63,5.18-1.03,1.51-.4,2.84-.85,4-1.35,1.15-.5,2.2-.97,3.13-1.4l4.64,13.5c-2.38,1.44-5.72,2.74-10.04,3.89-4.32,1.15-9.32,1.73-15.01,1.73Z"/>
  <path class="cls-2" d="M589.91,267.93v14.47h-50v-74.84h16.85v60.37h33.15Z"/>
  <path class="cls-2" d="M600.71,282.4v-74.84h50.54v14.15h-33.69v14.69h29.91v13.82h-29.91v18.04h36.18v14.15h-53.03Z"/>
  <g>
    <path class="cls-3" d="M217.19,293.14c-.13,1.04-.85,1.84-1.76,2.14-.55,.19-1.17,.19-1.76-.05-30.54-12-55.08-39.09-63.03-71.04,2.47,21.47,14.2,42.18,27.15,51.54-19.5,6.97-42.91-16.63-48.86-41.17-5.76-23.76,2.38-50.32,20.29-66.91-1.3,9.55,3.62,19.46,9.75,27.23,6.97,8.82,15.98,15.65,22.84,28.54,7.35,13.81,11.13,30.44,2.51,46.83,0,0,7.96,11.02,31.26,20.14,1.1,.44,1.76,1.56,1.62,2.74Z"/>
    <path class="cls-5" d="M289.04,258.84c-17.66,16.9-44.72,23.19-68.06,16.03,8.91-3.67,15.02-12.9,18.66-22.1,4.13-10.45,5.52-21.68,13.23-34.08,8.26-13.29,20.74-24.9,39.25-25.67,0,0,5.54-12.41,1.74-37.15-.18-1.17,.47-2.31,1.56-2.77,.97-.41,2.02-.19,2.74,.44,.44,.38,.75,.92,.84,1.55,4.95,32.44-6.17,67.26-29.81,90.17,17.33-12.91,29.36-33.45,30.96-49.35,15.81,13.37,7.15,45.46-11.1,62.92Z"/>
    <path class="cls-9" d="M280.19,158.79c-7.56-5.98-18.59-6.79-28.4-5.47-11.14,1.51-21.61,5.78-36.19,5.13-15.63-.71-31.86-5.92-41.58-21.69,0,0-13.54,1.24-33.25,16.65-.94,.73-2.25,.72-3.18,0-.83-.64-1.15-1.67-.95-2.6,.12-.57,.44-1.1,.94-1.49,25.87-20.18,61.69-27.51,93.23-18.08-19.74-8.8-43.53-9.26-58.19-2.87,3.93-20.33,36.16-28.46,60.31-21.09,23.38,7.14,42.09,27.67,47.26,51.53Z"/>
  </g>
</svg>