<?xml version="1.0" encoding="UTF-8"?>
<svg id="Layer_1" data-name="Layer 1" xmlns="http://www.w3.org/2000/svg" xmlns:xlink="http://www.w3.org/1999/xlink" viewBox="0 0 800 200">
  <defs>
    <style>
      .cls-1 {
        fill: url(#linear-gradient-2);
      }

      .cls-2 {
        fill: #fff;
      }

      .cls-3 {
        fill: url(#linear-gradient-6);
      }

      .cls-4 {
        fill: url(#linear-gradient-5);
      }

      .cls-5 {
        fill: url(#linear-gradient-7);
      }

      .cls-6 {
        fill: url(#linear-gradient-3);
      }

      .cls-7 {
        fill: url(#linear-gradient);
      }

      .cls-8 {
        fill: url(#linear-gradient-4);
      }

      .cls-9 {
        fill: url(#linear-gradient-8);
      }
    </style>
    <linearGradient id="linear-gradient" x1="269.22" y1="48.52" x2="267.81" y2="130.36" gradientUnits="userSpaceOnUse">
      <stop offset="0" stop-color="#b6f04a"/>
      <stop offset="1" stop-color="#2ccc5b"/>
    </linearGradient>
    <linearGradient id="linear-gradient-2" x1="320.46" y1="49.4" x2="319.05" y2="131.24" xlink:href="#linear-gradient"/>
    <linearGradient id="linear-gradient-3" x1="365.26" y1="50.17" x2="363.85" y2="132.01" xlink:href="#linear-gradient"/>
    <linearGradient id="linear-gradient-4" x1="408.42" y1="50.91" x2="407.01" y2="132.76" xlink:href="#linear-gradient"/>
    <linearGradient id="linear-gradient-5" x1="455.32" y1="51.72" x2="453.91" y2="133.57" xlink:href="#linear-gradient"/>
    <linearGradient id="linear-gradient-6" x1="140.51" y1="117.92" x2="108.8" y2="139.05" xlink:href="#linear-gradient"/>
    <linearGradient id="linear-gradient-7" x1="182.52" y1="107.06" x2="216.71" y2="123.89" xlink:href="#linear-gradient"/>
    <linearGradient id="linear-gradient-8" x1="153.65" y1="75.34" x2="151.61" y2="37.29" xlink:href="#linear-gradient"/>
  </defs>
  <path class="cls-7" d="M273.53,78.94c-5.18,0-8.92,1.44-11.22,4.31-2.3,2.87-3.46,6.8-3.46,11.79,0,2.42,.29,4.62,.85,6.59,.57,1.97,1.43,3.67,2.57,5.09,1.14,1.42,2.56,2.53,4.27,3.31,1.71,.78,3.7,1.18,5.98,1.18,1.23,0,2.29-.02,3.17-.07,.88-.05,1.65-.14,2.32-.28v-17.17h11.11v24.44c-1.33,.52-3.47,1.08-6.41,1.67-2.95,.59-6.58,.89-10.9,.89-3.7,0-7.07-.57-10.08-1.71-3.02-1.14-5.59-2.8-7.73-4.99-2.14-2.18-3.79-4.87-4.95-8.05-1.16-3.18-1.75-6.82-1.75-10.9s.64-7.79,1.92-10.97c1.28-3.18,3.04-5.88,5.27-8.09,2.23-2.21,4.86-3.88,7.87-5.02,3.02-1.14,6.23-1.71,9.65-1.71,2.33,0,4.43,.15,6.31,.46,1.88,.31,3.49,.67,4.84,1.07,1.35,.4,2.47,.82,3.35,1.25,.88,.43,1.51,.76,1.89,1l-3.21,8.91c-1.52-.81-3.27-1.51-5.24-2.1-1.97-.59-4.12-.89-6.45-.89Z"/>
  <path class="cls-1" d="M313.93,69.82c7.41,0,13.09,1.32,17.03,3.95,3.94,2.64,5.91,6.73,5.91,12.29,0,3.47-.8,6.28-2.39,8.44-1.59,2.16-3.88,3.86-6.88,5.09,1,1.24,2.04,2.65,3.13,4.24,1.09,1.59,2.17,3.25,3.24,4.99,1.07,1.73,2.1,3.54,3.1,5.42,1,1.88,1.92,3.72,2.78,5.52h-12.43c-.91-1.61-1.82-3.25-2.75-4.92-.93-1.66-1.88-3.28-2.86-4.84-.98-1.57-1.94-3.05-2.9-4.45-.95-1.4-1.91-2.67-2.86-3.81h-5.49v18.03h-11.11v-48.66c2.42-.47,4.93-.81,7.52-1,2.59-.19,4.9-.28,6.95-.28Zm.64,9.48c-.81,0-1.53,.02-2.17,.07s-1.25,.1-1.82,.14v13.39h3.13c4.18,0,7.17-.52,8.98-1.57,1.8-1.04,2.71-2.82,2.71-5.34s-.92-4.14-2.74-5.17c-1.83-1.02-4.52-1.53-8.09-1.53Z"/>
  <path class="cls-6" d="M346.99,119.76v-49.38h33.34v9.33h-22.23v9.69h19.74v9.12h-19.74v11.9h23.87v9.33h-34.98Z"/>
  <path class="cls-8" d="M390.17,119.76v-49.38h33.34v9.33h-22.23v9.69h19.74v9.12h-19.74v11.9h23.87v9.33h-34.98Z"/>
  <path class="cls-4" d="M466.47,119.76c-3.18-5.65-6.63-11.23-10.33-16.74-3.7-5.51-7.65-10.71-11.83-15.6v32.35h-10.97v-49.38h9.05c1.57,1.57,3.3,3.49,5.2,5.77,1.9,2.28,3.84,4.71,5.81,7.3,1.97,2.59,3.93,5.27,5.88,8.05,1.95,2.78,3.78,5.45,5.49,8.02v-29.14h11.04v49.38h-9.33Z"/>
  <path class="cls-2" d="M509.72,120.76c-8.03,0-14.14-2.23-18.35-6.7-4.2-4.46-6.31-10.81-6.31-19.02,0-4.08,.64-7.73,1.92-10.94,1.28-3.21,3.04-5.91,5.27-8.12,2.23-2.21,4.89-3.88,7.98-5.02,3.09-1.14,6.44-1.71,10.05-1.71,2.09,0,3.99,.15,5.7,.46,1.71,.31,3.21,.67,4.49,1.07,1.28,.4,2.35,.82,3.21,1.25,.86,.43,1.47,.76,1.85,1l-3.21,8.98c-1.52-.81-3.29-1.5-5.31-2.07-2.02-.57-4.31-.86-6.88-.86-1.71,0-3.38,.29-5.02,.86-1.64,.57-3.09,1.49-4.35,2.74-1.26,1.26-2.27,2.89-3.03,4.88-.76,1.99-1.14,4.42-1.14,7.27,0,2.28,.25,4.41,.75,6.38,.5,1.97,1.31,3.67,2.42,5.09,1.12,1.43,2.58,2.55,4.38,3.38,1.8,.83,3.99,1.25,6.55,1.25,1.61,0,3.06-.09,4.35-.28,1.28-.19,2.42-.41,3.42-.68,1-.26,1.88-.56,2.64-.89,.76-.33,1.45-.64,2.07-.93l3.06,8.91c-1.57,.95-3.78,1.81-6.63,2.56-2.85,.76-6.15,1.14-9.9,1.14Z"/>
  <path class="cls-2" d="M553.17,90.64c2-3.36,3.9-6.73,5.71-10.09,1.81-3.36,3.47-6.75,4.99-10.16h12.25c-2.71,5.32-5.51,10.47-8.41,15.46-2.9,4.99-5.96,10-9.19,15.03v18.88h-11.11v-18.74c-3.23-5.03-6.31-10.07-9.23-15.1-2.92-5.03-5.74-10.21-8.44-15.53h12.9c1.52,3.41,3.15,6.8,4.91,10.16,1.75,3.36,3.63,6.73,5.62,10.09Z"/>
  <path class="cls-2" d="M601.49,120.76c-8.03,0-14.14-2.23-18.35-6.7-4.2-4.46-6.31-10.81-6.31-19.02,0-4.08,.64-7.73,1.92-10.94,1.28-3.21,3.04-5.91,5.27-8.12,2.23-2.21,4.89-3.88,7.98-5.02,3.09-1.14,6.44-1.71,10.05-1.71,2.09,0,3.99,.15,5.7,.46,1.71,.31,3.21,.67,4.49,1.07,1.28,.4,2.35,.82,3.21,1.25,.86,.43,1.47,.76,1.85,1l-3.21,8.98c-1.52-.81-3.29-1.5-5.31-2.07-2.02-.57-4.31-.86-6.88-.86-1.71,0-3.38,.29-5.02,.86-1.64,.57-3.09,1.49-4.35,2.74-1.26,1.26-2.27,2.89-3.03,4.88-.76,1.99-1.14,4.42-1.14,7.27,0,2.28,.25,4.41,.75,6.38,.5,1.97,1.31,3.67,2.42,5.09,1.12,1.43,2.58,2.55,4.38,3.38,1.8,.83,3.99,1.25,6.55,1.25,1.61,0,3.06-.09,4.35-.28,1.28-.19,2.42-.41,3.42-.68,1-.26,1.88-.56,2.64-.89,.76-.33,1.45-.64,2.07-.93l3.06,8.91c-1.57,.95-3.78,1.81-6.63,2.56-2.85,.76-6.15,1.14-9.9,1.14Z"/>
  <path class="cls-2" d="M658.13,110.22v9.55h-32.99v-49.38h11.12v39.83h21.87Z"/>
  <path class="cls-2" d="M665.25,119.76v-49.38h33.34v9.33h-22.23v9.69h19.74v9.12h-19.74v11.9h23.87v9.33h-34.98Z"/>
  <g>
    <path class="cls-3" d="M159.19,161.45c-.09,.69-.56,1.21-1.16,1.41-.36,.12-.77,.12-1.16-.03-20.15-7.91-36.34-25.79-41.58-46.86,1.63,14.16,9.37,27.83,17.91,34.01-12.86,4.6-28.31-10.97-32.23-27.16-3.8-15.67,1.57-33.2,13.38-44.14-.86,6.3,2.39,12.84,6.43,17.96,4.6,5.82,10.54,10.33,15.07,18.83,4.85,9.11,7.35,20.08,1.65,30.9,0,0,5.25,7.27,20.62,13.29,.73,.29,1.16,1.03,1.07,1.81Z"/>
    <path class="cls-5" d="M206.6,138.82c-11.65,11.15-29.5,15.3-44.9,10.57,5.88-2.42,9.91-8.51,12.31-14.58,2.73-6.9,3.64-14.3,8.73-22.48,5.45-8.77,13.68-16.43,25.9-16.93,0,0,3.65-8.19,1.15-24.51-.12-.77,.31-1.52,1.03-1.83,.64-.27,1.33-.12,1.8,.29,.29,.25,.49,.61,.56,1.02,3.26,21.4-4.07,44.37-19.67,59.49,11.43-8.52,19.37-22.07,20.42-32.56,10.43,8.82,4.72,29.99-7.32,41.51Z"/>
    <path class="cls-9" d="M200.76,72.81c-4.99-3.94-12.27-4.48-18.74-3.61-7.35,.99-14.25,3.82-23.88,3.38-10.31-.47-21.02-3.9-27.43-14.31,0,0-8.93,.82-21.94,10.98-.62,.48-1.48,.48-2.1,0-.55-.42-.76-1.1-.63-1.72,.08-.37,.29-.73,.62-.99,17.07-13.31,40.7-18.15,61.51-11.93-13.02-5.81-28.72-6.11-38.39-1.9,2.59-13.41,23.86-18.78,39.79-13.91,15.42,4.71,27.77,18.26,31.18,33.99Z"/>
  </g>
</svg>