<?xml version="1.0" encoding="UTF-8"?>
<svg id="Layer_1" data-name="Layer 1" xmlns="http://www.w3.org/2000/svg" xmlns:xlink="http://www.w3.org/1999/xlink" viewBox="0 0 600 600">
  <defs>
    <style>
      .cls-1 {
        fill: url(#linear-gradient-2);
      }

      .cls-2 {
        fill: url(#linear-gradient-3);
      }

      .cls-3 {
        fill: url(#linear-gradient);
      }
    </style>
    <linearGradient id="linear-gradient" x1="231.97" y1="363.99" x2="118.73" y2="439.46" gradientUnits="userSpaceOnUse">
      <stop offset="0" stop-color="#b6f04a"/>
      <stop offset="1" stop-color="#2ccc5b"/>
    </linearGradient>
    <linearGradient id="linear-gradient-2" x1="382" y1="325.23" x2="504.1" y2="385.31" xlink:href="#linear-gradient"/>
    <linearGradient id="linear-gradient-3" x1="278.89" y1="211.94" x2="271.59" y2="76.06" xlink:href="#linear-gradient"/>
  </defs>
  <path class="cls-3" d="M298.68,519.44c-.31,2.45-2.01,4.33-4.14,5.05-1.3,.44-2.76,.44-4.16-.11-71.95-28.26-129.77-92.11-148.5-167.36,5.82,50.58,33.45,99.38,63.97,121.44-45.93,16.42-101.1-39.18-115.11-97-13.56-55.97,5.62-118.55,47.8-157.65-3.06,22.5,8.53,45.85,22.97,64.16,16.42,20.78,37.65,36.88,53.8,67.24,17.32,32.55,26.23,71.71,5.91,110.34,0,0,18.75,25.96,73.65,47.45,2.59,1.03,4.15,3.69,3.81,6.45Z"/>
  <path class="cls-1" d="M467.97,438.62c-41.61,39.82-105.36,54.63-160.35,37.77,20.99-8.64,35.38-30.39,43.97-52.06,9.74-24.63,13-51.07,31.16-80.28,19.46-31.32,48.86-58.67,92.48-60.48,0,0,13.04-29.25,4.09-87.52-.41-2.76,1.1-5.45,3.66-6.53,2.28-.96,4.75-.44,6.44,1.04,1.03,.9,1.76,2.17,1.99,3.65,11.66,76.42-14.54,158.47-70.24,212.44,40.83-30.42,69.18-78.81,72.94-116.27,37.25,31.49,16.84,107.11-26.14,148.24Z"/>
  <path class="cls-2" d="M447.11,202.9c-17.8-14.09-43.81-16-66.91-12.89-26.25,3.55-50.9,13.63-85.27,12.08-36.83-1.66-75.07-13.94-97.98-51.1,0,0-31.89,2.92-78.34,39.23-2.21,1.71-5.29,1.7-7.49,0-1.96-1.52-2.71-3.93-2.24-6.13,.29-1.33,1.03-2.59,2.21-3.52,60.96-47.53,145.35-64.8,219.66-42.6-46.5-20.74-102.57-21.81-137.09-6.77,9.25-47.9,85.2-67.06,142.1-49.69,55.08,16.82,99.17,65.19,111.34,121.4Z"/>
</svg>